{
    "streams": [
        {
            "index": 0,
            "codec_name": "mjpeg",
            "codec_long_name": "Motion JPEG",
            "codec_type": "video",
            "codec_time_base": "1001/24000",
            "codec_tag_string": "jpeg",
            "codec_tag": "0x6765706a",
            "width": 4096,
            "height": 2160,
            "coded_width": 4096,
            "coded_height": 2160,
            "has_b_frames": 0,
            "sample_aspect_ratio": "0:1",
            "display_aspect_ratio": "0:1",
            "pix_fmt": "yuvj422p",
            "level": -99,
            "color_range": "pc",
            "color_space": "bt470bg",
            "color_transfer": "bt709",
            "color_primaries": "bt709",
            "chroma_location": "center",
            "refs": 1,
            "r_frame_rate": "24000/1001",
            "avg_frame_rate": "24000/1001",
            "time_base": "1/24000",
            "start_pts": 0,
            "start_time": "0.000000",
            "duration_ts": 548548,
            "duration": "22.856167",
            "bit_rate": "528283122",
            "bits_per_raw_sample": "8",
            "nb_frames": "548",
            "disposition": {
                "default": 1,
                "dub": 0,
                "original": 0,
                "comment": 0,
                "lyrics": 0,
                "karaoke": 0,
                "forced": 0,
                "hearing_impaired": 0,
                "visual_impaired": 0,
                "clean_effects": 0,
                "attached_pic": 0,
                "timed_thumbnails": 0
            },
            "tags": {
                "creation_time": "2017-04-20T17:11:21.000000Z",
                "language": "eng",
                "encoder": "Photo - JPEG",
                "timecode": "12:11:21:17"
            }
        },
        {
            "index": 1,
            "codec_name": "pcm_s16le",
            "codec_long_name": "PCM signed 16-bit little-endian",
            "codec_type": "audio",
            "codec_time_base": "1/48000",
            "codec_tag_string": "sowt",
            "codec_tag": "0x74776f73",
            "sample_fmt": "s16",
            "sample_rate": "48000",
            "channels": 2,
            "channel_layout": "stereo",
            "bits_per_sample": 16,
            "r_frame_rate": "0/0",
            "avg_frame_rate": "0/0",
            "time_base": "1/48000",
            "start_pts": 0,
            "start_time": "0.000000",
            "duration_ts": 1097096,
            "duration": "22.856167",
            "bit_rate": "1536000",
            "nb_frames": "1097096",
            "disposition": {
                "default": 1,
                "dub": 0,
                "original": 0,
                "comment": 0,
                "lyrics": 0,
                "karaoke": 0,
                "forced": 0,
                "hearing_impaired": 0,
                "visual_impaired": 0,
                "clean_effects": 0,
                "attached_pic": 0,
                "timed_thumbnails": 0
            },
            "tags": {
                "creation_time": "2017-04-20T17:11:21.000000Z",
                "language": "eng",
                "timecode": "12:11:21:17"
            }
        },
        {
            "index": 2,
            "codec_type": "data",
            "codec_tag_string": "tmcd",
            "codec_tag": "0x64636d74",
            "r_frame_rate": "0/0",
            "avg_frame_rate": "24/1",
            "time_base": "1/24000",
            "start_pts": 0,
            "start_time": "0.000000",
            "duration_ts": 548548,
            "duration": "22.856167",
            "bit_rate": "767",
            "nb_frames": "548",
            "disposition": {
                "default": 1,
                "dub": 0,
                "original": 0,
                "comment": 0,
                "lyrics": 0,
                "karaoke": 0,
                "forced": 0,
                "hearing_impaired": 0,
                "visual_impaired": 0,
                "clean_effects": 0,
                "attached_pic": 0,
                "timed_thumbnails": 0
            },
            "tags": {
                "creation_time": "2017-04-20T17:11:21.000000Z",
                "language": "eng",
                "timecode": "12:11:21:17"
            }
        }
    ],
    "format": {
        "filename": "/Volumes/EOS_DIGITAL/DCIM/100EOS5D/MX0A0903.MOV",
        "nb_streams": 3,
        "nb_programs": 0,
        "format_name": "mov,mp4,m4a,3gp,3g2,mj2",
        "format_long_name": "QuickTime / MOV",
        "start_time": "0.000000",
        "duration": "22.856167",
        "size": "1513874928",
        "bit_rate": "529878847",
        "probe_score": 100,
        "tags": {
            "major_brand": "qt  ",
            "minor_version": "538247680",
            "compatible_brands": "qt  CAEP",
            "com.apple.quicktime.make": "Canon",
            "com.apple.quicktime.model": "Canon EOS 5D Mark IV",
            "com.apple.quicktime.rating.user": "0.000000",
            "creation_time": "2017-04-20T17:11:21.000000Z"
        }
    }
}
